<?xml version="1.0" standalone="no"?><svg xmlns="http://www.w3.org/2000/svg" viewBox="0 0 1440 320"><path fill="#4CAF50" fill-opacity="1" d="M0,64L15,85.3C30,107,60,149,90,192C120,235,150,277,180,256C210,235,240,149,270,122.7C300,96,330,128,360,160C390,192,420,224,450,218.7C480,213,510,171,540,144C570,117,600,107,630,96C660,85,690,75,720,90.7C750,107,780,149,810,144C840,139,870,85,900,90.7C930,96,960,160,990,170.7C1020,181,1050,139,1080,154.7C1110,171,1140,245,1170,240C1200,235,1230,149,1260,117.3C1290,85,1320,107,1350,96C1380,85,1410,43,1425,21.3L1440,0L1440,320L1425,320C1410,320,1380,320,1350,320C1320,320,1290,320,1260,320C1230,320,1200,320,1170,320C1140,320,1110,320,1080,320C1050,320,1020,320,990,320C960,320,930,320,900,320C870,320,840,320,810,320C780,320,750,320,720,320C690,320,660,320,630,320C600,320,570,320,540,320C510,320,480,320,450,320C420,320,390,320,360,320C330,320,300,320,270,320C240,320,210,320,180,320C150,320,120,320,90,320C60,320,30,320,15,320L0,320Z"></path></svg>